<?xml version="1.0" standalone="no"?>
<!DOCTYPE svg PUBLIC "-//W3C//DTD SVG 20010904//EN"
 "http://www.w3.org/TR/2001/REC-SVG-20010904/DTD/svg10.dtd">
<svg version="1.0" xmlns="http://www.w3.org/2000/svg"
 width="1250.000000pt" height="1250.000000pt" viewBox="0 0 1250.000000 1250.000000"
 preserveAspectRatio="xMidYMid meet">
<metadata>
Created by potrace 1.14, written by Peter Selinger 2001-2017
</metadata>
<g transform="translate(0.000000,1250.000000) scale(0.100000,-0.100000)"
fill="#000000" stroke="none">
<path d="M0 6250 l0 -6250 3675 0 3674 0 11 43 c48 183 133 389 186 447 12 14
42 63 66 110 50 98 136 230 150 230 6 0 24 -6 41 -14 60 -26 289 -49 431 -43
111 4 158 12 311 51 99 25 213 57 253 71 41 14 81 25 90 25 10 0 60 20 112 44
52 25 107 47 121 50 14 3 38 17 55 31 16 14 44 32 62 41 33 15 141 98 154 118
4 6 3 15 -2 20 -8 8 -71 -29 -78 -46 -2 -4 -8 -8 -14 -8 -6 0 -27 -12 -45 -26
-42 -32 -187 -104 -209 -104 -9 0 -28 -7 -42 -15 -15 -8 -63 -28 -107 -46 -44
-17 -98 -40 -120 -50 -47 -21 -299 -85 -400 -101 -38 -6 -128 -10 -200 -9
-166 3 -385 36 -385 59 0 4 11 24 25 44 14 20 25 40 25 44 0 9 59 128 140 282
32 62 64 130 71 150 6 20 26 69 44 107 18 39 46 103 61 143 25 64 31 72 54 72
14 0 30 4 35 9 6 5 42 17 80 27 39 9 79 20 90 25 11 5 49 19 85 32 98 36 185
82 285 151 50 35 119 80 155 101 36 22 97 69 136 105 39 36 79 72 90 81 46 40
169 229 149 229 -4 0 -3 6 2 13 14 16 23 57 14 57 -14 0 -38 -34 -69 -95 -52
-104 -213 -282 -297 -329 -16 -9 -57 -36 -90 -61 -33 -24 -63 -44 -68 -44 -4
-1 -25 -12 -47 -26 -22 -14 -40 -23 -40 -20 0 3 -24 -12 -52 -34 -55 -40 -118
-76 -118 -66 0 3 -13 -1 -30 -10 -16 -8 -33 -14 -37 -13 -4 1 -26 -8 -49 -19
-22 -12 -72 -29 -110 -38 -38 -10 -77 -21 -86 -26 -48 -24 -47 -27 -47 269 0
152 -5 320 -10 372 -6 52 -9 95 -8 95 104 50 144 69 199 94 56 25 88 50 188
151 112 112 173 190 282 366 24 38 68 159 68 186 0 19 -28 -12 -34 -37 -4 -14
-10 -25 -15 -25 -5 0 -21 -24 -34 -54 -14 -29 -47 -87 -73 -128 -27 -40 -53
-81 -59 -89 -5 -9 -41 -56 -78 -105 -74 -97 -147 -166 -199 -190 -18 -8 -55
-29 -83 -46 -47 -29 -163 -73 -172 -65 -2 3 -28 85 -58 184 -30 98 -68 216
-85 262 -17 46 -29 85 -28 86 2 1 32 17 68 35 157 77 226 128 323 235 48 52
87 92 87 89 0 -16 29 20 35 44 4 15 20 56 36 90 16 35 27 68 24 72 -3 5 1 25
9 45 8 19 11 35 7 35 -17 0 -41 -39 -71 -117 -17 -46 -47 -102 -67 -125 -80
-97 -213 -225 -269 -260 -63 -40 -166 -88 -187 -88 -7 0 -23 21 -35 48 -28 61
-68 131 -87 152 -8 9 -15 24 -15 32 0 9 -17 34 -37 56 -21 23 -55 64 -76 92
-22 29 -64 68 -97 88 -33 21 -59 40 -60 44 0 4 12 10 28 14 15 3 45 13 67 22
21 9 43 18 47 18 4 1 12 2 17 3 13 2 142 128 158 154 7 12 18 33 24 47 7 14
33 46 58 73 25 26 41 47 36 47 -5 0 14 22 43 50 57 54 84 61 123 32 61 -47
145 -57 207 -24 l40 21 14 -21 c9 -14 27 -23 49 -24 63 -5 183 -49 249 -92 14
-9 34 -18 44 -19 11 -2 27 -10 36 -18 9 -8 21 -15 26 -15 6 0 50 -40 100 -88
49 -48 114 -106 144 -128 61 -44 145 -86 154 -77 3 4 6 36 6 73 0 74 -23 129
-84 205 -18 22 -41 55 -50 72 -19 37 -257 282 -355 364 -37 32 -73 73 -87 101
-14 27 -33 49 -46 53 -22 7 -156 67 -190 86 -10 5 -24 9 -32 9 -7 0 -36 21
-64 47 -36 35 -54 60 -62 93 -7 25 -18 56 -25 70 -12 24 -11 28 24 57 30 25
49 32 108 38 60 6 76 4 111 -14 38 -19 140 -91 207 -146 17 -14 44 -35 61 -47
17 -13 44 -35 60 -50 16 -14 74 -66 128 -115 55 -48 106 -95 113 -103 7 -8 40
-44 74 -80 33 -36 81 -91 107 -123 26 -32 76 -93 111 -135 35 -42 82 -106 106
-142 43 -67 51 -79 108 -165 65 -97 162 -281 188 -355 14 -41 40 -113 57 -160
28 -76 90 -333 121 -498 7 -34 12 -115 11 -180 0 -113 14 -284 26 -303 3 -5 5
-104 5 -221 0 -216 6 -272 54 -443 7 -27 21 -88 30 -135 21 -110 46 -181 106
-302 27 -54 49 -100 49 -102 0 -3 20 -49 45 -102 25 -53 45 -98 45 -100 0 -9
172 -349 183 -363 7 -7 30 -46 52 -86 33 -60 159 -275 196 -335 5 -8 19 -34
30 -57 l20 -43 854 0 855 0 0 6250 0 6250 -6250 0 -6250 0 0 -6250z m10445
3491 c-31 -142 -377 -455 -664 -601 -110 -56 -237 -111 -266 -116 -11 -1 -51
-15 -90 -29 -38 -15 -90 -34 -115 -42 -25 -8 -67 -26 -95 -38 -27 -13 -72 -30
-100 -39 -27 -9 -64 -23 -80 -31 -17 -7 -44 -13 -60 -13 -17 1 -44 -6 -60 -14
-17 -9 -70 -28 -120 -43 -49 -15 -108 -33 -130 -40 -22 -7 -86 -25 -142 -40
-57 -15 -103 -31 -103 -35 0 -4 -20 -13 -45 -19 -25 -6 -45 -16 -45 -21 0 -5
-15 -13 -32 -18 -45 -13 -146 -61 -153 -73 -4 -5 -15 -9 -25 -9 -10 0 -20 -5
-22 -11 -2 -6 -17 -11 -33 -11 -17 0 -64 -20 -107 -44 -43 -24 -83 -44 -90
-44 -28 0 -257 -132 -327 -188 -51 -42 -76 -66 -230 -230 -109 -116 -160 -183
-161 -210 0 -7 -15 -36 -33 -65 -18 -29 -40 -67 -48 -85 -13 -32 -16 -33 -49
-26 -19 5 -64 8 -100 7 l-66 -1 -46 106 c-26 59 -49 117 -53 130 -3 12 -15 27
-25 32 -25 13 -215 17 -307 6 l-71 -9 -21 41 c-12 23 -21 48 -21 57 0 14 106
98 200 159 25 16 63 44 86 62 23 19 44 34 47 34 4 0 46 28 94 63 101 72 146
101 188 121 17 8 44 27 60 43 17 16 71 51 120 78 50 27 108 61 129 77 21 15
44 28 50 28 6 0 27 10 46 23 19 13 51 29 70 37 19 7 72 30 118 52 46 21 108
48 139 60 31 11 70 29 87 39 17 9 54 24 81 32 28 9 100 34 160 57 61 23 126
45 146 50 20 5 80 28 135 50 115 48 222 83 314 104 109 25 178 43 190 51 12 7
60 19 280 65 74 16 189 43 255 60 66 18 140 36 165 40 25 5 72 18 105 28 33
11 85 26 115 32 128 30 194 58 392 168 172 96 361 192 366 187 2 -2 1 -17 -3
-34z m1955 -332 c0 -27 -55 -188 -92 -265 -28 -61 -54 -87 -242 -247 -28 -23
-70 -60 -95 -82 -68 -59 -141 -117 -186 -146 -111 -72 -188 -116 -289 -165
-61 -30 -122 -63 -136 -74 -14 -11 -34 -21 -45 -23 -43 -8 -146 -57 -193 -92
-19 -13 -59 -31 -90 -40 -62 -18 -226 -83 -312 -122 -30 -14 -143 -56 -250
-93 -107 -37 -226 -80 -265 -95 -78 -31 -162 -59 -305 -101 -52 -15 -130 -45
-172 -65 -43 -21 -78 -36 -78 -33 0 7 -249 -124 -270 -141 -8 -7 -53 -29 -100
-49 -95 -41 -164 -84 -227 -144 -24 -22 -74 -61 -113 -87 -38 -26 -70 -53 -70
-59 0 -7 -25 -39 -55 -71 -30 -33 -55 -64 -55 -68 0 -5 -14 -25 -30 -44 -16
-18 -30 -41 -30 -51 -1 -38 -48 -71 -110 -77 -60 -6 -99 42 -101 123 -1 79
-79 207 -129 214 -28 3 -269 -74 -306 -99 -13 -8 -39 -15 -59 -16 -41 -1 -78
30 -127 105 -16 27 -44 63 -60 80 -50 53 -77 109 -76 156 0 40 5 47 57 90 31
26 86 67 121 92 34 25 77 57 94 71 17 14 63 43 101 64 39 21 107 60 153 87 45
26 86 48 91 48 11 0 98 37 135 57 16 9 36 16 45 17 9 1 77 33 151 72 74 40
166 81 204 94 38 12 88 31 110 42 60 31 202 78 234 78 16 0 32 3 36 7 4 5 29
13 54 20 26 6 124 31 217 56 236 61 449 103 735 147 74 11 171 29 215 39 115
28 167 38 285 57 122 19 114 17 205 45 39 11 111 29 160 40 50 10 138 37 197
59 59 22 111 40 117 40 28 0 227 74 269 100 28 17 74 39 103 49 88 31 200 85
274 134 80 52 245 208 269 255 19 37 36 42 36 11z m-3253 -3074 c40 -4 85 -10
99 -14 26 -7 25 -8 -27 -34 -66 -33 -180 -77 -200 -77 -7 0 -36 -11 -64 -24
-27 -13 -95 -41 -150 -62 -167 -64 -236 -102 -322 -174 -7 -5 -15 -10 -19 -10
-10 0 -192 -109 -196 -117 -5 -13 -105 -83 -117 -83 -7 0 -23 24 -37 54 -28
61 -34 161 -15 233 6 22 13 60 15 84 3 24 16 70 31 102 21 46 31 57 50 57 14
0 44 7 68 15 24 8 61 17 83 20 21 4 55 11 74 17 61 18 564 27 727 13z m-3338
-580 c23 -11 29 -23 35 -61 7 -56 -8 -96 -20 -49 -9 39 -30 63 -76 86 -63 32
-151 -3 -199 -78 -40 -64 -38 -100 7 -154 32 -38 34 -43 18 -52 -9 -5 -53 -11
-97 -12 -44 -2 -83 -8 -86 -13 -6 -11 -54 -32 -71 -32 -17 0 47 144 86 197 13
17 24 35 24 39 0 23 116 108 177 130 51 18 167 18 202 -1z m-54 -48 c64 -36
72 -109 14 -145 -17 -11 -22 -7 -50 38 -30 48 -65 70 -88 55 -13 -7 -1 -33 26
-60 9 -9 16 -30 16 -46 0 -15 4 -26 9 -23 4 3 8 1 8 -4 0 -6 -19 -20 -41 -32
l-42 -21 -29 28 c-40 38 -50 65 -36 105 18 52 45 84 90 107 54 26 73 26 123
-2z m145 -15 c0 -4 -5 -14 -10 -22 -9 -13 -11 -13 -20 0 -5 8 -10 23 -10 33 0
15 3 16 20 7 11 -6 20 -14 20 -18z m2690 -312 c37 -7 75 -22 175 -69 33 -16
85 -39 115 -52 30 -13 62 -29 71 -36 8 -7 20 -13 25 -13 10 0 73 -41 154 -99
25 -17 63 -43 85 -57 22 -14 58 -45 81 -67 22 -23 71 -69 109 -101 48 -43 75
-75 92 -114 14 -29 22 -56 19 -59 -3 -3 -23 6 -44 19 -59 40 -153 85 -202 98
-45 12 -109 31 -185 55 -22 7 -119 26 -215 41 -168 26 -182 26 -355 17 -99 -5
-186 -8 -192 -5 -33 11 -3 184 45 260 15 24 39 67 54 95 41 76 77 110 108 101
14 -4 41 -10 60 -14z m-5325 -538 c1 -151 16 -218 62 -272 29 -35 83 -143 83
-166 0 -23 -51 -134 -61 -134 -5 0 -40 -30 -79 -67 -80 -75 -112 -86 -255 -87
l-80 -1 -8 55 c-8 55 3 125 40 255 30 106 70 211 110 290 41 81 170 265 186
265 1 0 2 -62 2 -138z m5419 -467 c20 -19 40 -35 47 -35 16 0 348 -339 366
-374 9 -16 32 -51 53 -77 23 -29 42 -67 48 -96 24 -106 24 -113 9 -113 -31 0
-236 159 -272 211 -18 26 -91 76 -185 127 -50 27 -99 44 -243 83 -30 9 -49 20
-53 32 -9 29 14 125 44 187 25 51 31 56 82 71 30 10 58 17 62 18 4 1 23 -15
42 -34z m-3818 -300 c38 -83 47 -252 12 -217 -7 7 -19 12 -27 12 -33 0 -123
51 -171 96 -27 26 -50 50 -50 55 0 23 155 105 203 108 4 1 19 -24 33 -54z
m-222 -127 c44 -67 56 -99 56 -149 0 -38 -1 -39 -27 -33 -51 11 -89 24 -128
44 -22 11 -44 20 -51 20 -6 0 -17 7 -24 15 -14 16 -11 21 66 102 28 29 56 53
62 53 6 0 27 -24 46 -52z m-147 -156 c39 -31 83 -91 83 -113 0 -29 -190 20
-221 58 -11 13 -10 17 4 28 9 7 17 16 17 20 0 16 52 55 63 48 7 -3 31 -22 54
-41z m393 -21 c25 -12 54 -29 65 -39 20 -17 75 -87 75 -95 0 -9 -89 -27 -132
-27 -24 0 -48 -4 -53 -9 -6 -4 -22 -11 -37 -15 l-28 -6 0 108 c0 60 3 111 6
114 7 8 49 -4 104 -31z m-504 -78 c28 -18 48 -41 59 -66 8 -20 15 -39 15 -41
0 -2 -20 -7 -44 -10 -38 -6 -53 -2 -103 24 -78 42 -85 56 -42 91 43 36 61 36
115 2z m-151 -94 c31 -61 28 -95 -12 -110 -32 -12 -90 7 -142 45 l-33 25 48
25 c27 14 63 34 79 45 17 12 31 21 31 21 1 0 14 -23 29 -51z m489 -11 c13 -21
8 -26 -32 -34 -27 -5 -31 -4 -27 10 3 9 7 23 10 32 6 19 34 15 49 -8z m-132
-68 c-26 -9 -55 -21 -65 -25 -18 -7 -17 -5 2 33 l21 41 44 -16 44 -17 -46 -16z
m-572 -31 l0 -50 -46 7 c-25 3 -67 12 -92 18 l-46 12 66 18 c37 10 75 24 85
32 29 22 33 17 33 -37z m429 5 c17 -4 31 -9 31 -13 0 -3 -37 -20 -83 -37 -66
-25 -83 -28 -85 -17 -2 8 9 28 24 44 28 30 53 35 113 23z m-624 -86 c14 -28
22 -54 20 -57 -8 -8 -134 28 -161 46 -31 20 -30 31 4 39 15 3 41 10 57 14 50
14 54 12 80 -42z m377 5 c17 -10 33 -23 35 -29 2 -5 -22 -21 -54 -35 -32 -13
-60 -25 -64 -27 -10 -4 -17 58 -12 94 5 30 7 31 35 23 16 -4 43 -16 60 -26z
m-562 -67 c26 -78 37 -166 22 -166 -6 0 -26 7 -44 16 -37 19 -153 143 -153
164 0 13 132 61 147 53 3 -2 16 -32 28 -67z m381 -78 c-25 -15 -49 -28 -53
-28 -5 0 -8 29 -8 65 l0 66 54 -38 53 -38 -46 -27z m-562 -6 c13 -35 20 -66
17 -69 -14 -14 -206 55 -206 74 0 10 72 53 115 70 38 14 45 7 74 -75z m305 29
c28 -22 64 -53 80 -69 l28 -30 -38 -26 c-50 -32 -87 -41 -101 -24 -23 30 -46
188 -26 188 3 0 29 -18 57 -39z m-501 -103 c13 -41 25 -58 54 -77 l38 -24 -30
-13 c-63 -27 -116 -5 -149 60 -13 26 -13 32 2 55 40 66 64 66 85 -1z m375 -91
c9 -11 5 -18 -19 -36 -38 -28 -49 -18 -49 47 l0 43 28 -20 c16 -11 34 -26 40
-34z m-148 -22 c25 -25 48 -45 53 -45 4 0 7 -6 7 -12 -1 -19 -90 -71 -95 -55
-9 25 -35 135 -35 146 0 22 26 9 70 -34z"/>
<path d="M5375 5456 c11 -8 24 -12 28 -9 11 7 -12 23 -32 23 -11 0 -9 -4 4
-14z"/>
</g>
</svg>
